<?xml version="1.0" encoding="UTF-8"?>
<svg version="1.1" xmlns="http://www.w3.org/2000/svg" width="500" height="500">
<path d="M0 0 C165 0 330 0 500 0 C500 165 500 330 500 500 C335 500 170 500 0 500 C0 335 0 170 0 0 Z " fill="#000000" transform="translate(0,0)"/>
<path d="M0 0 C3.43367932 0.00193275 6.86735358 0.00028237 10.30103278 -0.00133693 C19.52173855 -0.00565834 28.74242865 -0.00282504 37.96313262 0.00365937 C44.67755685 0.0083407 51.39197861 0.01071134 58.1064043 0.01190996 C125.93182496 0.02635821 193.74941899 0.40112135 261.57088184 1.13422441 C261.67975995 7.6099149 261.74272111 13.81906017 260.43416309 20.19281816 C260.18601856 21.40389238 259.93787403 22.6149666 259.68220997 23.86274004 C259.28679005 25.69868731 259.28679005 25.69868731 258.88338184 27.57172441 C258.51696583 29.4018709 258.51696583 29.4018709 258.14314747 31.26899004 C255.77100392 42.56519769 251.90945159 53.06650659 246.63338184 63.32172441 C246.29057178 63.99534014 245.94776173 64.66895586 245.59456348 65.36298418 C230.18680362 95.33429231 206.98374363 114.71592322 176.57088184 128.13422441 C175.62470997 128.56606035 174.67853809 128.99789629 173.70369434 129.44281816 C160.12558967 135.31752002 145.12031762 137.23281286 130.57088184 139.13422441 C129.50895618 139.30268373 128.44703053 139.47114305 127.3529253 139.6447072 C120.78772645 140.45641849 114.17219265 140.28734868 107.56795216 140.29193926 C106.05244266 140.29661486 104.53693456 140.30175964 103.02142811 140.30733538 C99.76781568 140.3185712 96.51421216 140.3270274 93.26058674 140.33345461 C88.0960606 140.34420564 82.93159835 140.3644725 77.76710987 140.38657427 C63.08405488 140.44824939 48.40100345 140.50233567 33.7178545 140.5355916 C25.60032857 140.55405687 17.48290989 140.58314314 9.36546302 140.62359631 C5.0825221 140.64447571 0.79971522 140.66009599 -3.48327923 140.66240358 C-24.34462466 140.67682308 -44.87090215 140.73397945 -65.05411816 146.82172441 C-66.34503368 147.20409258 -66.34503368 147.20409258 -67.66202831 147.59418535 C-106.63982707 159.58184567 -132.13030437 186.50521934 -151.08927441 221.59125566 C-154.59640229 228.26387998 -157.56255224 235.16714037 -160.42911816 242.13422441 C-161.08911816 242.13422441 -161.74911816 242.13422441 -162.42911816 242.13422441 C-174.30797967 178.06641519 -177.91252796 99.61597241 -139.83536816 43.44672441 C-123.44760718 20.29833597 -100.45881687 7.98333871 -73.06193066 2.71234941 C-64.93066956 1.41834227 -56.83719029 0.87633758 -48.61271191 0.5800252 C-47.44582333 0.53791477 -46.27893475 0.49580435 -45.07668591 0.45241785 C-30.05384083 -0.03727789 -15.02918171 -0.01178287 0 0 Z " fill="#9844E7" transform="translate(214.4291181564331,45.86577558517456)"/>
<path d="M0 0 C2.83386606 0.00192766 5.66772595 0.0002858 8.50159186 -0.00133693 C16.05468449 -0.00563972 23.60775791 -0.00285248 31.16084832 0.00365937 C36.62763418 0.00833549 42.09441702 0.01070902 47.56120467 0.01190996 C92.12464277 0.02360996 136.68086181 0.17686409 181.23582625 1.13422441 C181.08080946 3.05016419 180.92446585 4.96599664 180.76756454 6.88178301 C180.63718291 8.48211885 180.63718291 8.48211885 180.50416732 10.11478472 C178.59974736 31.54378675 170.1609123 52.68304566 156.23582625 69.13422441 C155.73953719 69.77488848 155.24324813 70.41555254 154.73192 71.07563066 C137.58148259 92.35248911 109.76613023 102.69361627 83.44309974 105.92162752 C79.72289024 106.27994514 76.01394117 106.28702529 72.27903914 106.29193926 C71.42069976 106.29701998 70.56236037 106.3021007 69.6780107 106.30733538 C67.82404808 106.31798201 65.97007306 106.32662423 64.11609244 106.33345461 C61.15548642 106.3453753 58.19501785 106.36486775 55.23446822 106.38657427 C46.81936083 106.44769528 38.40426513 106.50178355 29.98900008 106.5355916 C-10.8820098 106.20341667 -10.8820098 106.20341667 -50.76417375 114.13422441 C-50.80175797 115.49402422 -50.80175797 115.49402422 -50.84010148 116.88129473 C-50.9362705 120.30325442 -51.03542662 123.72510231 -51.1364882 127.14691973 C-51.17931829 128.61693837 -51.22101955 130.08699043 -51.2614882 131.55707598 C-52.11304894 162.38147223 -57.95685525 193.5513874 -80.76417375 216.13422441 C-81.58917375 217.00047441 -82.41417375 217.86672441 -83.26417375 218.75922441 C-84.50167375 219.93484941 -84.50167375 219.93484941 -85.76417375 221.13422441 C-86.33780656 221.71430254 -86.91143937 222.29438066 -87.502455 222.89203691 C-103.75927357 238.50593046 -129.62495175 248.24563337 -152.00636125 248.15375566 C-152.89952043 248.15093584 -153.79267961 248.14811602 -154.71290421 248.14521074 C-155.38982316 248.14158525 -156.06674211 248.13795977 -156.76417375 248.13422441 C-158.68896098 214.24422064 -158.89504043 180.2167444 -155.12696671 146.45941973 C-154.82061137 143.651506 -154.55775617 140.84779674 -154.33058 138.03266191 C-150.75122238 95.7643839 -135.85858925 51.22594154 -103.76417375 22.13422441 C-74.35023648 -2.22731887 -35.94608217 -0.034007 0 0 Z " fill="#A458F1" transform="translate(210.764173746109,205.86577558517456)"/>
</svg>
